<?xml version="1.0" encoding="UTF-8"?>
<svg width="512" height="512" viewBox="0 0 512 512" fill="none" xmlns="http://www.w3.org/2000/svg">
  <rect width="512" height="512" rx="128" fill="url(#gradient)"/>
  <path d="M315 195.5C315 224.5 299 247 267 263C299.5 279.5 316 302.5 316 332C316 379 277.5 403 200.5 403H142V124H208.5C277.5 124 315 147.5 315 195.5ZM264.5 203.5C264.5 177 247.5 163.5 213.5 163.5H191V246H213.5C247.5 246 264.5 232 264.5 203.5ZM265.5 324.5C265.5 294.5 247.5 279.5 211.5 279.5H191V363.5H211.5C247.5 363.5 265.5 350.5 265.5 324.5Z" fill="white"/>
  <defs>
    <linearGradient id="gradient" x1="0" y1="0" x2="512" y2="512" gradientUnits="userSpaceOnUse">
      <stop offset="0%" style="stop-color:#00f0ff"/>
      <stop offset="100%" style="stop-color:#00ff9d"/>
    </linearGradient>
  </defs>
</svg> 